<svg xmlns="http://www.w3.org/2000/svg" viewBox="0 0 96 96">
  <defs>
    <linearGradient id="g" x1="12" y1="8" x2="84" y2="88" gradientUnits="userSpaceOnUse">
      <stop stop-color="#35B8FF"/><stop offset="1" stop-color="#0876B7"/>
    </linearGradient>
    <filter id="s" x="-30%" y="-30%" width="160%" height="160%"><feDropShadow dx="0" dy="7" stdDeviation="6" flood-color="#075D8D" flood-opacity=".25"/></filter>
  </defs>
  <rect x="8" y="8" width="80" height="80" rx="26" fill="url(#g)" filter="url(#s)"/>
  <path d="M31 27h17.5C61.5 27 70 35.1 70 47.7 70 60.5 61.1 69 47.8 69H31V27Zm16.2 31.1c6.9 0 11.3-3.8 11.3-10.2 0-6.3-4.3-10-11-10h-5.3v20.2h5Z" fill="white"/>
  <path d="M72 21.5l1.8 4.7 4.7 1.8-4.7 1.8-1.8 4.7-1.8-4.7-4.7-1.8 4.7-1.8 1.8-4.7Z" fill="#BCEBFF"/>
</svg>
